<svg id="Capa_1" enable-background="new 0 0 512 512" height="512" viewBox="0 0 512 512" width="512" xmlns="http://www.w3.org/2000/svg"><g><g><path d="m466 392h-60c-8.284 0-15-6.716-15-15v-362c0-8.284 6.716-15 15-15h60c8.284 0 15 6.716 15 15v362c0 8.284-6.716 15-15 15z"/></g><g><path d="m346 392h-60c-8.284 0-15-6.716-15-15v-300c0-8.284 6.716-15 15-15h60c8.284 0 15 6.716 15 15v300c0 8.284-6.716 15-15 15z"/></g><g><path d="m226 392h-60c-8.284 0-15-6.716-15-15v-240c0-8.284 6.716-15 15-15h60c8.284 0 15 6.716 15 15v240c0 8.284-6.716 15-15 15z"/></g><g><path d="m106 392h-60c-8.284 0-15-6.716-15-15v-180c0-8.284 6.716-15 15-15h60c8.284 0 15 6.716 15 15v180c0 8.284-6.716 15-15 15z"/></g><g><path d="m241 467c0 5.13.52 10.15 1.51 15h-227.51c-8.28 0-15-6.72-15-15s6.72-15 15-15h227.51c-.99 4.85-1.51 9.87-1.51 15z"/></g><g><path d="m512 467c0 8.28-6.72 15-15 15h-107.51c.99-4.85 1.51-9.87 1.51-15s-.52-10.15-1.51-15h107.51c8.28 0 15 6.72 15 15z"/></g><g><path d="m316 512c-24.813 0-45-20.187-45-45s20.187-45 45-45 45 20.187 45 45-20.187 45-45 45z"/></g></g></svg>