<?xml version="1.0" encoding="iso-8859-1"?>
<!-- Generator: Adobe Illustrator 19.0.0, SVG Export Plug-In . SVG Version: 6.00 Build 0)  -->
<svg version="1.1" id="Layer_1" xmlns="http://www.w3.org/2000/svg" xmlns:xlink="http://www.w3.org/1999/xlink" x="0px" y="0px"
	 viewBox="0 0 512.002 512.002" style="enable-background:new 0 0 512.002 512.002;" xml:space="preserve">
<g>
	<g>
		<g>
			<path d="M405.335,53.334c0-29.406-23.917-53.333-53.333-53.333s-53.333,23.927-53.333,53.333v332.073
				c-13.604,13.958-21.333,32.625-21.333,51.927c0,41.167,33.5,74.667,74.667,74.667s74.667-33.5,74.667-74.667
				c0-19.313-7.729-37.969-21.333-51.917V53.334z M352.002,490.667c-29.417,0-53.333-23.927-53.333-53.333
				c0-15.104,6.333-29.125,17.813-39.469c2.25-2.031,3.521-4.906,3.521-7.927V53.334c0-17.646,14.354-32,32-32
				c17.646,0,32,14.354,32,32v336.615c0,3.021,1.292,5.906,3.521,7.927c11.479,10.344,17.813,24.354,17.813,39.458
				C405.335,466.74,381.418,490.667,352.002,490.667z"/>
			<path d="M362.668,407.299V224.001c0-5.896-4.771-10.667-10.667-10.667s-10.667,4.771-10.667,10.667v183.298
				c-12.389,4.418-21.333,16.147-21.333,30.035c0,17.646,14.354,32,32,32c17.646,0,32-14.354,32-32
				C384.002,423.446,375.058,411.717,362.668,407.299z M352.002,448.001c-5.875,0-10.667-4.781-10.667-10.667
				c0-5.885,4.792-10.667,10.667-10.667s10.667,4.781,10.667,10.667C362.668,443.22,357.877,448.001,352.002,448.001z"/>
			<path d="M501.335,341.334h-64c-5.896,0-10.667,4.771-10.667,10.667c0,5.896,4.771,10.667,10.667,10.667h64
				c5.896,0,10.667-4.771,10.667-10.667C512.002,346.105,507.231,341.334,501.335,341.334z"/>
			<path d="M437.335,320.001h21.333c5.896,0,10.667-4.771,10.667-10.667c0-5.896-4.771-10.667-10.667-10.667h-21.333
				c-5.896,0-10.667,4.771-10.667,10.667C426.668,315.23,431.439,320.001,437.335,320.001z"/>
			<path d="M437.335,277.334h21.333c5.896,0,10.667-4.771,10.667-10.667c0-5.896-4.771-10.667-10.667-10.667h-21.333
				c-5.896,0-10.667,4.771-10.667,10.667C426.668,272.563,431.439,277.334,437.335,277.334z"/>
			<path d="M501.335,213.334h-64c-5.896,0-10.667,4.771-10.667,10.667s4.771,10.667,10.667,10.667h64
				c5.896,0,10.667-4.771,10.667-10.667S507.231,213.334,501.335,213.334z"/>
			<path d="M437.335,106.667h64c5.896,0,10.667-4.771,10.667-10.667s-4.771-10.667-10.667-10.667h-64
				c-5.896,0-10.667,4.771-10.667,10.667S431.439,106.667,437.335,106.667z"/>
			<path d="M437.335,192.001h21.333c5.896,0,10.667-4.771,10.667-10.667c0-5.896-4.771-10.667-10.667-10.667h-21.333
				c-5.896,0-10.667,4.771-10.667,10.667C426.668,187.23,431.439,192.001,437.335,192.001z"/>
			<path d="M437.335,149.334h21.333c5.896,0,10.667-4.771,10.667-10.667c0-5.896-4.771-10.667-10.667-10.667h-21.333
				c-5.896,0-10.667,4.771-10.667,10.667C426.668,144.563,431.439,149.334,437.335,149.334z"/>
			<path d="M275.877,175.959c-2.979-5.104-9.521-6.792-14.583-3.844l-31.855,18.582c-1.389-7.121-2.888-16.103-4.02-24.134
				c-0.813-5.844-6.396-9.99-12.042-9.073c-5.833,0.823-9.896,6.208-9.083,12.052c1.507,10.697,3.53,23.23,5.763,32.461
				l-23.161,13.51c-0.499-5.63-0.896-12.302-1.121-18.686c1.068-2.813,1.059-6.008-0.501-8.858
				c-2.026-3.695-5.926-5.633-9.859-5.454c-0.164-0.007-0.313-0.046-0.475-0.044c-0.193,0.018-0.375,0.111-0.568,0.139
				c-1.549,0.09-3.107,0.352-4.514,1.109c-6.719,3.674-14.441,7.586-20.521,10.501v-25.727c9.228-2.631,21.443-7.22,31.854-11.431
				c5.458-2.208,8.104-8.417,5.896-13.885c-2.229-5.469-8.458-8.125-13.896-5.885c-7.913,3.198-16.945,6.574-23.854,8.954v-39.579
				c0-5.896-4.771-10.667-10.667-10.667c-5.896,0-10.667,4.771-10.667,10.667v39.54c-7.005-2.379-15.984-5.736-23.854-8.915
				c-5.458-2.229-11.667,0.417-13.896,5.885c-2.208,5.469,0.438,11.677,5.896,13.885c10.411,4.211,22.628,8.799,31.854,11.431
				v25.189c-6.083-2.854-13.286-6.508-19.625-9.964c-1.746-0.958-3.618-1.193-5.471-1.122c-0.678-0.035-1.298,0.092-1.973,0.185
				c-0.389,0.089-0.756,0.176-1.134,0.309c-0.936,0.236-1.915,0.262-2.776,0.754c-3.229,1.865-5.25,5.26-5.333,8.979
				c-0.181,7.547-0.651,16.053-1.163,22.74l-21.632-12.618c2.327-9.302,4.443-22.326,6.003-33.402
				c0.813-5.844-3.25-11.229-9.083-12.052c-5.688-0.823-11.208,3.24-12.042,9.073c-1.191,8.445-2.78,17.952-4.171,25.128
				l-33.559-19.576c-5.063-2.948-11.625-1.26-14.583,3.844c-2.979,5.094-1.25,11.625,3.833,14.594l33.589,19.592
				c-5.583,4.902-12.883,10.945-19.651,16.23c-4.646,3.625-5.479,10.323-1.854,14.969c2.104,2.698,5.25,4.104,8.417,4.104
				c2.313,0,4.625-0.74,6.562-2.26c8.836-6.895,18.879-15.151,25.771-21.816l21.846,12.743c-5.694,4.021-12.883,8.751-19.492,12.781
				c-3.188,1.927-5.125,5.385-5.125,9.104c0,3.719,1.938,7.177,5.125,9.104c6.698,4.09,13.977,8.867,19.59,12.724L58.127,290.63
				c-6.892-6.665-16.935-14.922-25.771-21.816c-4.646-3.615-11.354-2.833-14.979,1.844c-3.625,4.646-2.792,11.344,1.854,14.969
				c6.814,5.314,14.154,11.389,19.69,16.207L5.293,321.449c-5.083,2.969-6.813,9.5-3.833,14.594
				c1.979,3.396,5.542,5.292,9.208,5.292c1.833,0,3.688-0.469,5.375-1.448l33.518-19.552c1.441,7.257,3.027,16.702,4.211,25.104
				c0.75,5.323,5.313,9.177,10.542,9.177c0.5,0,1-0.031,1.5-0.104c5.833-0.823,9.896-6.208,9.083-12.052
				c-1.56-11.076-3.676-24.099-6.003-33.402l21.547-12.569c0.604,6.82,1.069,15.227,1.247,22.69
				c0.083,3.719,2.104,7.125,5.333,8.979c0.842,0.486,1.81,0.492,2.732,0.73c0.421,0.15,0.832,0.243,1.27,0.34
				c0.457,0.06,0.875,0.357,1.332,0.357c0.227,0,0.436-0.154,0.663-0.168c1.815,0.048,3.647-0.197,5.358-1.134
				c6.392-3.484,13.694-7.195,19.625-10.059v27.271c-9.227,2.629-21.443,7.212-31.854,11.423c-5.458,2.198-8.104,8.417-5.896,13.875
				c2.229,5.469,8.417,8.094,13.896,5.896c7.913-3.191,16.945-6.566,23.854-8.945v37.591c0,5.896,4.771,10.667,10.667,10.667
				c5.896,0,10.667-4.771,10.667-10.667v-37.551c7.005,2.378,15.984,5.73,23.854,8.905c1.313,0.531,2.667,0.781,4,0.781
				c4.208,0,8.208-2.521,9.896-6.677c2.208-5.458-0.438-11.677-5.896-13.875c-10.411-4.211-22.626-8.794-31.854-11.423v-27.592
				c6.276,2.911,13.845,6.728,20.521,10.38c1.756,0.951,3.697,1.285,5.63,1.191c0.147,0.007,0.286,0.111,0.432,0.111
				c3.771,0,7.417-2.01,9.354-5.552c1.56-2.852,1.57-6.046,0.501-8.859c0.225-6.466,0.613-13.203,1.036-18.734l23.245,13.56
				c-2.233,9.229-4.255,21.766-5.762,32.461c-0.813,5.844,3.25,11.229,9.083,12.052c0.5,0.073,1,0.104,1.5,0.104
				c5.229,0,9.792-3.854,10.542-9.177c1.138-8.069,2.638-17.102,3.983-24.156l31.892,18.604c1.688,0.979,3.542,1.448,5.375,1.448
				c3.667,0,7.229-1.896,9.208-5.292c2.979-5.094,1.25-11.625-3.833-14.594l-32.467-18.94c5.645-4.997,13.299-11.352,20.384-16.883
				c4.646-3.625,5.479-10.323,1.854-14.969c-3.646-4.656-10.396-5.448-14.979-1.844c-9.122,7.117-19.603,15.72-26.482,22.483
				l-22.99-13.41c5.694-4.021,12.883-8.751,19.492-12.781c3.188-1.927,5.125-5.385,5.125-9.104c0-3.719-1.938-7.177-5.125-9.104
				c-6.698-4.09-13.977-8.867-19.59-12.724l23.087-13.467c6.879,6.763,17.359,15.366,26.482,22.483
				c1.958,1.521,4.25,2.26,6.563,2.26c3.167,0,6.313-1.406,8.417-4.104c3.625-4.646,2.792-11.344-1.854-14.969
				c-7.137-5.566-14.844-11.961-20.43-16.857l32.513-18.966C277.127,187.584,278.856,181.053,275.877,175.959z M99.94,266.238
				c-3.553-2.956-8.202-6.359-14.022-10.237c5.818-3.876,10.465-7.281,14.02-10.238l17.552,10.238L99.94,266.238z M128.002,294.729
				c-4.31,1.598-9.517,3.889-15.708,6.949c-0.435-6.805-1.047-12.38-1.806-16.884l17.514-10.216V294.729z M128.002,237.424
				l-17.513-10.215c0.758-4.503,1.37-10.079,1.805-16.885c6.191,3.06,11.398,5.352,15.708,6.949V237.424z M149.335,217.492
				c4.288-1.514,9.413-3.677,15.741-6.775c0.434,6.613,1.03,12.082,1.773,16.491l-17.514,10.216V217.492z M165.076,301.285
				c-6.328-3.098-11.453-5.26-15.741-6.775v-19.932l17.513,10.215C166.106,289.2,165.509,294.67,165.076,301.285z M177.399,266.239
				l-17.552-10.238l17.549-10.237c3.553,2.956,8.202,6.359,14.022,10.237C185.601,259.877,180.953,263.282,177.399,266.239z"/>
		</g>
	</g>
</g>
<g>
</g>
<g>
</g>
<g>
</g>
<g>
</g>
<g>
</g>
<g>
</g>
<g>
</g>
<g>
</g>
<g>
</g>
<g>
</g>
<g>
</g>
<g>
</g>
<g>
</g>
<g>
</g>
<g>
</g>
</svg>
