<?xml version="1.0" encoding="iso-8859-1"?>
<!-- Generator: Adobe Illustrator 19.0.0, SVG Export Plug-In . SVG Version: 6.00 Build 0)  -->
<svg version="1.1" id="Capa_1" xmlns="http://www.w3.org/2000/svg" xmlns:xlink="http://www.w3.org/1999/xlink" x="0px" y="0px"
	 viewBox="0 0 512 512" style="enable-background:new 0 0 512 512;" xml:space="preserve">
<g>
	<g>
		<path d="M230.5,181c-41.355,0-75,33.645-75,75c0,41.355,33.645,75,75,75c41.355,0,75-33.645,75-75S271.855,181,230.5,181z
			 M230.5,301c-24.813,0-45-20.187-45-45s20.187-45,45-45s45,20.187,45,45S255.313,301,230.5,301z"/>
	</g>
</g>
<g>
	<g>
		<path d="M375.5,0c-33.084,0-60,26.916-60,60s26.916,60,60,60c33.084,0,60-26.916,60-60S408.584,0,375.5,0z M375.5,90
			c-16.542,0-30-13.458-30-30s13.458-30,30-30s30,13.458,30,30S392.042,90,375.5,90z"/>
	</g>
</g>
<g>
	<g>
		<path d="M105.5,0c-44.112,0-80,35.888-80,80s35.888,80,80,80s80-35.888,80-80S149.612,0,105.5,0z M105.5,130
			c-27.57,0-50-22.43-50-50s22.43-50,50-50s50,22.43,50,50S133.07,130,105.5,130z"/>
	</g>
</g>
<g>
	<g>
		<path d="M406.5,301c-44.112,0-80,35.888-80,80s35.888,80,80,80s80-35.888,80-80S450.612,301,406.5,301z M406.5,431
			c-27.57,0-50-22.43-50-50s22.43-50,50-50s50,22.43,50,50S434.07,431,406.5,431z"/>
	</g>
</g>
<g>
	<g>
		<path d="M85.5,392c-33.084,0-60,26.916-60,60s26.916,60,60,60s60-26.916,60-60S118.584,392,85.5,392z M85.5,482
			c-16.542,0-30-13.458-30-30s13.458-30,30-30s30,13.458,30,30S102.042,482,85.5,482z"/>
	</g>
</g>
<g>
</g>
<g>
</g>
<g>
</g>
<g>
</g>
<g>
</g>
<g>
</g>
<g>
</g>
<g>
</g>
<g>
</g>
<g>
</g>
<g>
</g>
<g>
</g>
<g>
</g>
<g>
</g>
<g>
</g>
</svg>
