<svg id="Capa_1" enable-background="new 0 0 512 512" height="512" viewBox="0 0 512 512" width="512" xmlns="http://www.w3.org/2000/svg"><g><path d="m381.88 132.562v-56.132c0-4.142-3.357-7.5-7.5-7.5s-7.5 3.358-7.5 7.5v48.871c-6.71-2.265-13.885-3.511-21.35-3.511h-30.16v-81.04c0-14.199 11.556-25.75 25.76-25.75 14.198 0 25.75 11.551 25.75 25.75v5.72c0 4.142 3.357 7.5 7.5 7.5s7.5-3.358 7.5-7.5v-5.72c0-22.47-18.28-40.75-40.75-40.75-22.475 0-40.76 18.28-40.76 40.75v81.04h-62.557v-22.015c0-13.53-11.007-24.538-24.537-24.538h-29.772c-13.53 0-24.538 11.008-24.538 24.538v22.447c-33.396 3.744-59.446 32.14-59.446 66.519v202.89c0 4.142 3.357 7.5 7.5 7.5s7.5-3.358 7.5-7.5v-202.891c0-28.633 23.284-51.928 51.912-51.949.011 0 .023.002.034.002l179.064-.003c28.646 0 51.95 23.305 51.95 51.95v256.32c0 28.64-23.305 51.94-51.95 51.94h-179.06c-28.646 0-51.95-23.3-51.95-51.94v-23.43c0-4.142-3.357-7.5-7.5-7.5s-7.5 3.358-7.5 7.5v23.43c0 36.911 30.034 66.94 66.95 66.94h179.06c36.916 0 66.95-30.029 66.95-66.94v-256.32c0-23.521-12.203-44.234-30.6-56.178zm-198.376-42.325h29.772c5.259 0 9.537 4.279 9.537 9.538v22.015h-48.848v-22.015c.001-5.259 4.279-9.538 9.539-9.538z"/><path d="m164.884 227.244h182.232c14.771 0 26.787-12.017 26.787-26.788s-12.017-26.788-26.787-26.788h-182.232c-14.771 0-26.787 12.017-26.787 26.788s12.016 26.788 26.787 26.788zm0-38.575h182.232c6.499 0 11.787 5.288 11.787 11.788s-5.288 11.788-11.787 11.788h-182.232c-6.499 0-11.787-5.288-11.787-11.788s5.288-11.788 11.787-11.788z"/><path d="m164.884 299.073h182.232c14.771 0 26.787-12.017 26.787-26.788s-12.017-26.787-26.787-26.787h-182.232c-14.771 0-26.787 12.017-26.787 26.788s12.016 26.787 26.787 26.787zm0-38.575h182.232c6.499 0 11.787 5.288 11.787 11.788s-5.288 11.787-11.787 11.787h-182.232c-6.499 0-11.787-5.288-11.787-11.788s5.288-11.787 11.787-11.787z"/><path d="m164.884 370.902h182.232c14.771 0 26.787-12.017 26.787-26.788s-12.017-26.788-26.787-26.788h-182.232c-14.771 0-26.787 12.017-26.787 26.788s12.016 26.788 26.787 26.788zm0-38.575h182.232c6.499 0 11.787 5.288 11.787 11.788s-5.288 11.788-11.787 11.788h-182.232c-6.499 0-11.787-5.288-11.787-11.788s5.288-11.788 11.787-11.788z"/><path d="m169.207 456.697c17.154 0 31.11-13.956 31.11-31.11s-13.956-31.11-31.11-31.11-31.11 13.956-31.11 31.11 13.956 31.11 31.11 31.11zm0-47.22c8.883 0 16.11 7.227 16.11 16.11s-7.228 16.11-16.11 16.11-16.11-7.227-16.11-16.11 7.227-16.11 16.11-16.11z"/><path d="m342.793 394.477c-17.154 0-31.11 13.956-31.11 31.11s13.956 31.11 31.11 31.11 31.11-13.956 31.11-31.11-13.956-31.11-31.11-31.11zm0 47.22c-8.883 0-16.11-7.227-16.11-16.11s7.228-16.11 16.11-16.11 16.11 7.227 16.11 16.11-7.227 16.11-16.11 16.11z"/></g></svg>